<svg width="117" height="157" viewBox="0 0 117 157" fill="none" xmlns="http://www.w3.org/2000/svg">
<path d="M12.4316 122.962C8.83812 122.962 6.16726 125.012 5.19604 127.491V123.582H0L0 148.467H5.29316L5.29316 137.741C5.29316 132.354 6.89568 128.206 12.4316 128.206V122.962Z" fill="#ECECEC"/>
<path d="M26.7177 157L39.9749 123.582H34.4389L27.6889 141.697L20.8418 123.582H15.1602L25.2123 148.038L21.6188 157H26.7177Z" fill="#ECECEC"/>
<path d="M67.2863 114H61.9932V126.919C61.3133 125.823 58.5939 122.962 53.7863 122.962C46.5507 122.962 41.7432 128.397 41.7432 136.072C41.7432 143.7 46.8907 149.086 54.1263 149.086C59.0309 149.086 61.6047 146.083 62.2845 145.225V148.467H67.2863V114ZM62.1874 136.12C62.1874 140.696 59.3223 144.51 54.6604 144.51C50.3385 144.51 47.0849 141.221 47.0849 136.12C47.0849 131.114 50.1928 127.586 54.6119 127.586C58.8367 127.586 62.1874 130.685 62.1874 136.12Z" fill="#ECECEC"/>
<path d="M71.7156 136.12C71.7156 143.652 76.9602 149.086 84.8757 149.086C90.8973 149.086 94.248 145.702 95.462 143.652L91.9656 141.078C90.9944 142.46 88.8091 144.558 84.9728 144.558C80.4566 144.558 77.203 141.697 77.1059 137.264H96.1904C96.239 136.835 96.239 136.406 96.239 135.977C96.239 128.159 91.7228 122.962 84.0501 122.962C77.1059 122.962 71.7156 128.397 71.7156 136.12ZM77.3002 133.688C77.6401 129.779 80.4566 127.3 84.0987 127.3C87.7408 127.3 90.6545 129.589 90.8487 133.688H77.3002Z" fill="#ECECEC"/>
<path d="M98.6925 144.129C99.955 146.369 102.674 149.086 107.822 149.086C113.018 149.086 117 146.083 117 141.459C117 132.687 104.617 134.69 104.617 129.922C104.617 128.206 106.074 127.205 108.016 127.205C110.833 127.205 112.192 128.826 112.921 129.97L116.563 127.586C115.592 125.68 113.067 122.962 108.308 122.962C103.403 122.962 99.6151 125.632 99.6151 130.018C99.6151 138.646 111.95 136.93 111.95 141.697C111.95 143.7 110.299 144.796 108.065 144.796C104.908 144.796 103.16 143.223 101.995 141.554L98.6925 144.129Z" fill="#ECECEC"/>
<path d="M69.5027 39.673C69.5027 45.3795 64.7964 50.0055 58.991 50.0055C53.1856 50.0055 48.4794 45.3795 48.4794 39.673C48.4794 33.9665 53.1856 29.3405 58.991 29.3405C64.7964 29.3405 69.5027 33.9665 69.5027 39.673Z" fill="#36E2D4"/>
<path fill-rule="evenodd" clip-rule="evenodd" d="M100 42.9378C100 55.6638 93.2479 67.9924 85.224 78.1505C79.709 69.6807 70.0535 64.0665 59.064 64.0665C48.0361 64.0665 38.3515 69.72 32.8463 78.2394C24.7915 68.0644 18 55.7009 18 42.9378C18 19.2239 36.3563 0 59 0C81.6437 0 100 19.2239 100 42.9378ZM75.7472 39.673C75.7472 48.7695 68.2452 56.1436 58.991 56.1436C49.7369 56.1436 42.2349 48.7695 42.2349 39.673C42.2349 30.5766 49.7369 23.2024 58.991 23.2024C68.2452 23.2024 75.7472 30.5766 75.7472 39.673Z" fill="#36E2D4"/>
<path d="M59.064 69.123C68.6012 69.123 77.2034 74.4588 81.564 82.5484C74.0918 91.0933 66.2501 97.6558 62.0642 100.933C60.2473 102.356 57.7527 102.356 55.9358 100.933C51.7647 97.6674 43.9636 91.1398 36.5154 82.6391C40.8604 74.4987 49.4912 69.123 59.064 69.123Z" fill="#36E2D4"/>
</svg>
