<svg width="411" height="823" viewBox="0 0 411 823" fill="none"
    xmlns="http://www.w3.org/2000/svg">
    <g opacity="0.25">
        <g opacity="0.3">
            <path opacity="0.3" d="M604.792 322.994L-29.6507 689.97L-267.53 827.636" stroke="#3F4F74" stroke-width="8" stroke-miterlimit="10"/>
            <path opacity="0.3" d="M-208.06 862.053L664.262 357.411" stroke="#3F4F74" stroke-width="8" stroke-miterlimit="10"/>
            <path opacity="0.3" d="M-148.542 896.497L723.732 391.828" stroke="#3F4F74" stroke-width="8" stroke-miterlimit="10"/>
            <path opacity="0.3" d="M-89.072 930.914L783.085 426.177" stroke="#3F4F74" stroke-width="8" stroke-miterlimit="10"/>
            <path opacity="0.3" d="M-29.6021 944.908L842.726 440.072" stroke="#3F4F74" stroke-width="8" stroke-miterlimit="10"/>
            <path opacity="0.3" d="M-327 813.642L545.322 309" stroke="#3F4F74" stroke-width="8" stroke-miterlimit="10"/>
            <path opacity="0.3" d="M-168.372 632.633L130.183 804.886" stroke="#3F4F74" stroke-width="8" stroke-miterlimit="10"/>
            <path opacity="0.3" d="M10.3198 529.427L565.048 850.581" stroke="#3F4F74" stroke-width="8" stroke-miterlimit="10"/>
            <path opacity="0.3" d="M-23.104 411.981L56.9253 458.255L333.977 618.448" stroke="#3F4F74" stroke-width="8"/>
            <path opacity="0.3" d="M566.009 620.659L327.189 483.56" stroke="#3F4F74" stroke-width="8" stroke-miterlimit="10"/>
            <path opacity="0.3" d="M-69.0837 575.315L505.578 907.941" stroke="#3F4F74" stroke-width="8" stroke-miterlimit="10"/>
        </g>
        <g opacity="0.3">
            <path opacity="0.3" d="M612.792 -96.0056L-21.6507 270.97L-259.53 408.637" stroke="#3F4F74" stroke-width="8" stroke-miterlimit="10"/>
            <path opacity="0.3" d="M-200.06 443.053L672.262 -61.5891" stroke="#3F4F74" stroke-width="8" stroke-miterlimit="10"/>
            <path opacity="0.3" d="M-140.542 477.497L731.732 -27.1724" stroke="#3F4F74" stroke-width="8" stroke-miterlimit="10"/>
            <path opacity="0.3" d="M-81.072 511.914L791.085 7.17676" stroke="#3F4F74" stroke-width="8" stroke-miterlimit="10"/>
            <path opacity="0.3" d="M-21.6021 525.908L850.726 21.072" stroke="#3F4F74" stroke-width="8" stroke-miterlimit="10"/>
            <path opacity="0.3" d="M-319 394.642L553.322 -110" stroke="#3F4F74" stroke-width="8" stroke-miterlimit="10"/>
            <path opacity="0.3" d="M-160.372 213.633L138.183 385.886" stroke="#3F4F74" stroke-width="8" stroke-miterlimit="10"/>
            <path opacity="0.3" d="M18.3198 110.427L573.048 431.581" stroke="#3F4F74" stroke-width="8" stroke-miterlimit="10"/>
            <path opacity="0.3" d="M-15.104 -7.0188L64.9253 39.2546L341.977 199.448" stroke="#3F4F74" stroke-width="8"/>
            <path opacity="0.3" d="M574.009 201.659L335.189 64.5603" stroke="#3F4F74" stroke-width="8" stroke-miterlimit="10"/>
            <path opacity="0.3" d="M-61.0837 156.315L513.578 488.941" stroke="#3F4F74" stroke-width="8" stroke-miterlimit="10"/>
        </g>
    </g>
</svg>
